<svg xmlns="http://www.w3.org/2000/svg" width="26" height="26" viewBox="0 0 26 26" fill="none"><path d="M25.7908 10.5936C25.9064 10.5936 26.0001 10.6873 26.0001 10.8028V13C26.0001 13.8224 25.9237 14.6264 25.7772 15.4064C24.6439 21.4651 19.3063 26.0438 12.9084 25.9996C5.72952 25.9502 -0.0157701 20.1497 0.000124453 12.9707C0.0159174 5.8046 5.83027 0 13.0001 0C16.5128 0 19.6999 1.39354 22.0398 3.65716C22.1243 3.73887 22.1265 3.87354 22.0434 3.95662L18.935 7.06499C18.855 7.14502 18.7257 7.14711 18.6437 7.06905C17.1751 5.6711 15.188 4.81284 13.0001 4.81284C8.48201 4.81284 4.84379 8.42522 4.81312 12.9432C4.7823 17.4908 8.45967 21.1871 13.0001 21.1871C16.684 21.1871 19.7998 18.7535 20.8273 15.4064H13.2093C13.0938 15.4064 13.0001 15.3127 13.0001 15.1972V10.8028C13.0001 10.6872 13.0938 10.5935 13.2093 10.5935H25.7908V10.5936Z" fill="#2196F3"></path><path d="M25.7907 10.5936H24.2213C24.3369 10.5936 24.4306 10.6873 24.4306 10.8028V13C24.4306 13.8223 24.3542 14.6264 24.2077 15.4064C23.1266 21.1864 18.2188 25.6194 12.2145 25.9765C12.4442 25.9901 12.6755 25.998 12.9084 25.9996C19.3063 26.0438 24.6438 21.465 25.7771 15.4064C25.9236 14.6264 26 13.8223 26 13V10.8028C26 10.6873 25.9063 10.5936 25.7907 10.5936Z" fill="#1E88E5"></path><path d="M5.56359 9.57135L1.61545 6.71866C3.83042 2.71248 8.09869 0 13 0C16.5127 0 19.6998 1.39354 22.0398 3.65716C22.1243 3.73887 22.1265 3.87354 22.0433 3.95662L18.9349 7.06499C18.8551 7.14487 18.7258 7.14736 18.644 7.06946C17.1753 5.67125 15.1881 4.81289 13 4.81289C9.70267 4.81289 6.86044 6.76208 5.56359 9.57135Z" fill="#F44336"></path><path d="M4.4238 8.74783L5.56358 9.57135C6.74729 7.00721 9.21872 5.16049 12.1483 4.85758C12.1703 4.8552 12.1915 4.8523 12.2139 4.85017C11.9561 4.82569 11.6949 4.8129 11.4306 4.8129C8.45192 4.8129 5.85598 6.38321 4.4238 8.74783Z" fill="#E53935"></path><path d="M20.4704 3.65716C20.5549 3.73887 20.5571 3.87354 20.4739 3.95667L17.951 6.47964C18.1927 6.66346 18.424 6.86009 18.6436 7.06911C18.7256 7.14716 18.8549 7.14507 18.935 7.06504L22.0433 3.95667C22.1265 3.87354 22.1242 3.73892 22.0398 3.65716C19.6998 1.39354 16.5127 0 13 0C12.7364 0 12.4749 0.00878515 12.2152 0.0242734C15.4164 0.214957 18.3059 1.56335 20.4704 3.65716Z" fill="#E53935"></path><path d="M22.5363 21.8348C20.1623 24.3966 16.7682 26 13 26C7.91041 26 3.50402 23.0752 1.37009 18.8142L5.40085 16.052C6.61041 19.0616 9.55724 21.1871 13 21.1871C15.1605 21.1871 17.1255 20.3501 18.5882 18.9826L22.5363 21.8348Z" fill="#4CAF50"></path><path d="M5.4009 16.052L4.21231 16.8665C5.5928 19.4382 8.30751 21.1871 11.4306 21.1871C11.6947 21.1871 11.9558 21.1742 12.2135 21.1497C9.11336 20.8542 6.51717 18.8297 5.4009 16.052Z" fill="#43A047"></path><path d="M13 26C16.7682 26 20.1623 24.3966 22.5363 21.8348L21.5693 21.1362C19.3402 23.9103 15.9962 25.7507 12.2173 25.9763C12.4762 25.9918 12.7372 26 13 26Z" fill="#43A047"></path><path d="M4.81289 13C4.81289 14.0787 5.02161 15.1088 5.40089 16.052L1.37008 18.8142C0.49334 17.0648 0 15.09 0 13C0 10.7218 0.585914 8.58051 1.61545 6.71867L5.56359 9.57135C5.08178 10.6139 4.81289 11.7759 4.81289 13Z" fill="#FFC107"></path><path d="M4.21231 16.8665L5.4009 16.052C5.02162 15.1088 4.8129 14.0787 4.8129 13C4.8129 11.7759 5.08179 10.6139 5.5636 9.57135L4.42382 8.74783C3.68368 9.96988 3.25412 11.4039 3.24366 12.9432C3.23401 14.3628 3.58578 15.6994 4.21231 16.8665Z" fill="#FFB300"></path></svg>