<svg width="117" height="40" viewBox="0 0 117 40" fill="none" xmlns="http://www.w3.org/2000/svg">
<g clip-path="url(#clip0_502_1371)">
<g clip-path="url(#clip1_502_1371)">
<path d="M52.5312 8.71875C55.1771 8.88542 57.4375 8.96875 59.3125 8.96875C61.8021 8.96875 63.7292 8.88542 65.0938 8.71875C65.0312 9.28125 65 9.70833 65 10C65 10.2812 65.0312 10.7031 65.0938 11.2656C63.0312 11.1094 60.5 11.026 57.5 11.0156L57.4844 11.8906L57.4688 14.5469V17.2031L57.4531 18.4844C58.2344 18.5156 58.7865 18.5312 59.1094 18.5312C60.526 18.5312 62.4115 18.4479 64.7656 18.2812C64.7031 18.8438 64.6719 19.2656 64.6719 19.5469C64.6719 19.8281 64.7031 20.25 64.7656 20.8125C62.3698 20.6562 60.4531 20.5781 59.0156 20.5781C58.651 20.5781 58.1354 20.5833 57.4688 20.5938C57.4583 21.6979 57.4531 22.4635 57.4531 22.8906C57.4531 25.6198 57.5365 28.349 57.7031 31.0781C56.5573 31.026 55.7031 31 55.1406 31C54.5573 31 53.6875 31.026 52.5312 31.0781C52.6979 27.849 52.7812 24.276 52.7812 20.3594L52.7656 15.9219C52.7552 13.2031 52.7396 11.5104 52.7188 10.8438C52.6875 10.25 52.625 9.54167 52.5312 8.71875ZM67.5781 31.0781C67.7552 29.3385 67.8438 26.6979 67.8438 23.1562C67.8438 20.3438 67.7552 17.849 67.5781 15.6719C68.6198 15.724 69.3958 15.75 69.9062 15.75C70.4271 15.75 71.2083 15.724 72.25 15.6719C72.0833 17.6823 72 20.099 72 22.9219C72 26.5885 72.0833 29.3073 72.25 31.0781C71.2083 31.026 70.4323 31 69.9219 31C69.401 31 68.6198 31.026 67.5781 31.0781ZM69.9688 7.35938C70.6875 7.35938 71.2917 7.63021 71.7812 8.17188C72.2083 8.64062 72.4219 9.1875 72.4219 9.8125C72.4219 10.5417 72.151 11.1562 71.6094 11.6562C71.1406 12.0729 70.5885 12.2812 69.9531 12.2812C69.2344 12.2812 68.6302 12.0104 68.1406 11.4688C67.7135 11 67.5 10.4375 67.5 9.78125C67.5 9.09375 67.7708 8.5 68.3125 8C68.7812 7.57292 69.3333 7.35938 69.9688 7.35938ZM76.0469 15.6719C77.0573 15.724 77.8229 15.75 78.3438 15.75C78.8333 15.75 79.5833 15.724 80.5938 15.6719C80.4271 16.3906 80.3438 17.0469 80.3438 17.6406C80.3438 17.651 80.3438 17.7031 80.3438 17.7969C81.1562 16.9635 81.8333 16.3906 82.375 16.0781C83.2604 15.5573 84.2292 15.2969 85.2812 15.2969C86.7396 15.2969 87.9427 15.7552 88.8906 16.6719C89.401 17.1823 89.7552 17.7083 89.9531 18.25C90.224 19.0312 90.3594 19.9948 90.3594 21.1406C90.3594 21.5469 90.349 22.5677 90.3281 24.2031C90.3281 24.3177 90.3281 24.7865 90.3281 25.6094C90.3281 27.9219 90.4115 29.7448 90.5781 31.0781C89.5365 31.026 88.7552 31 88.2344 31C87.724 31 86.9479 31.026 85.9062 31.0781C86.0729 28.0052 86.1562 25.6615 86.1562 24.0469C86.1562 22.3385 86.1146 21.1875 86.0312 20.5938C85.7708 18.875 84.901 18.0156 83.4219 18.0156C81.8385 18.0156 80.9062 18.901 80.625 20.6719C80.5104 21.4219 80.4531 23.224 80.4531 26.0781C80.4531 27.974 80.5365 29.6406 80.7031 31.0781C79.6719 31.026 78.901 31 78.3906 31C77.8698 31 77.0885 31.026 76.0469 31.0781C76.2031 29.6719 76.2812 27.0521 76.2812 23.2188C76.2812 19.8021 76.2031 17.2865 76.0469 15.6719ZM92.3438 17.7031C92.3958 17.2031 92.4219 16.8229 92.4219 16.5625C92.4219 16.3229 92.3958 15.9531 92.3438 15.4531C93.1354 15.6198 93.8958 15.7031 94.625 15.7031C94.625 14.7865 94.6146 13.6198 94.5938 12.2031C96.0521 11.6198 97.4896 10.9948 98.9062 10.3281L99.2031 10.5938C99.0365 13.0938 98.9531 14.6354 98.9531 15.2188C98.9531 15.3229 98.9583 15.4844 98.9688 15.7031C99.3854 15.7344 99.7188 15.75 99.9688 15.75C100.396 15.75 101.068 15.6667 101.984 15.5C101.922 15.9896 101.891 16.3542 101.891 16.5938C101.891 16.8438 101.922 17.2135 101.984 17.7031C101.047 17.5365 100.359 17.4531 99.9219 17.4531C99.6719 17.4531 99.3385 17.4688 98.9219 17.5C98.849 20.1458 98.8125 22.3646 98.8125 24.1562C98.8125 26.0833 98.8542 27.3229 98.9375 27.875C99.1042 29.0729 99.7031 29.6719 100.734 29.6719C101.068 29.6719 101.536 29.5833 102.141 29.4062V30.6875C101.026 31.1979 99.8438 31.4531 98.5938 31.4531C97.3854 31.4531 96.401 31.0781 95.6406 30.3281C95.2656 29.9531 95.0104 29.5312 94.875 29.0625C94.6979 28.3958 94.6094 27.5885 94.6094 26.6406L94.625 24.1406L94.6406 22.1406C94.6406 21.3281 94.6406 20.6146 94.6406 20C94.651 19.3438 94.6562 18.9375 94.6562 18.7812C94.6562 18.5833 94.6458 18.151 94.625 17.4844C94.3542 17.4635 94.1302 17.4531 93.9531 17.4531C93.6198 17.4531 93.0833 17.5365 92.3438 17.7031Z" fill="#1B321D"/>
</g>
<g clip-path="url(#clip2_502_1371)">
<path d="M10.5611 12.2747V12.0487C10.5611 9.54691 11.5556 7.1476 13.3257 5.37859C15.0958 3.60957 17.4967 2.61574 20 2.61574C22.5033 2.61574 24.9042 3.60957 26.6743 5.37859C28.4444 7.1476 29.4389 9.54691 29.4389 12.0487V12.2747C29.4389 14.1615 30.1889 15.9711 31.5239 17.3053C32.859 18.6396 34.6697 19.3891 36.5578 19.3891H39.9916C39.8069 14.2119 37.6187 9.30833 33.8881 5.71139C30.1575 2.11445 25.1756 0.104873 19.9918 0.105957C14.808 0.107042 9.82691 2.1187 6.09778 5.71721C2.36866 9.31571 0.18258 14.2202 0 19.3975H3.43384C4.37012 19.3986 5.29742 19.2151 6.16264 18.8575C7.02786 18.5 7.81401 17.9754 8.47606 17.3137C9.13811 16.6521 9.66306 15.8664 10.0209 15.0018C10.3786 14.1371 10.5622 13.2104 10.5611 12.2747Z" fill="#FA8977"/>
<path d="M29.4389 27.7258C29.4389 32.8356 25.4648 37.1922 20.3518 37.3763C19.0837 37.4236 17.819 37.2148 16.6335 36.7625C15.448 36.3102 14.3659 35.6236 13.4519 34.7438C12.538 33.864 11.8109 32.8091 11.3142 31.6421C10.8175 30.4751 10.5614 29.22 10.5611 27.9518V27.7258C10.5611 25.8389 9.81111 24.0293 8.47605 22.6951C7.141 21.3609 5.33027 20.6113 3.44221 20.6113H0C0.150623 25.8122 2.32381 30.7496 6.0581 34.3751C9.7924 38.0006 14.7937 40.0286 20 40.0286C25.2063 40.0286 30.2076 38.0006 33.9419 34.3751C37.6762 30.7496 39.8494 25.8122 40 20.6113H36.5662C35.6306 20.6102 34.704 20.7934 33.8393 21.1505C32.9746 21.5075 32.1888 22.0314 31.5269 22.6921C30.865 23.3529 30.3398 24.1376 29.9816 25.0013C29.6233 25.865 29.4389 26.7908 29.4389 27.7258Z" fill="#FA8977"/>
<path d="M19.9748 4.90918C19.0293 4.91029 18.1228 5.28644 17.4546 5.955C16.7865 6.62356 16.4111 7.52985 16.4111 8.47478V31.5256C16.4111 32.4706 16.7865 33.3768 17.4546 34.0454C18.1228 34.714 19.0293 35.0901 19.9748 35.0912C20.921 35.0912 21.8285 34.7156 22.4976 34.0469C23.1667 33.3782 23.5426 32.4713 23.5426 31.5256V8.47478C23.5426 7.52912 23.1667 6.6222 22.4976 5.95352C21.8285 5.28484 20.921 4.90918 19.9748 4.90918Z" fill="#FA8977"/>
</g>
</g>
<defs>
<clipPath id="clip0_502_1371">
<rect width="117" height="40" fill="white"/>
</clipPath>
<clipPath id="clip1_502_1371">
<rect width="67" height="26" fill="white" transform="translate(50 7)"/>
</clipPath>
<clipPath id="clip2_502_1371">
<rect width="40" height="40" fill="white"/>
</clipPath>
</defs>
</svg>
