<svg width="74" height="72" viewBox="0 0 74 72" fill="none" xmlns="http://www.w3.org/2000/svg">
<g clip-path="url(#clip0_219_641)">
<path d="M60.556 8.13712C48.4834 -1.43097 31.789 -2.51928 18.2841 4.70087C11.2548 8.48478 5.07886 13.75 2.29561 21.3934C-0.568908 29.2937 -0.614619 38.3328 1.38648 46.4296C3.4536 54.7935 7.91798 62.9811 15.6684 67.3494C23.0176 71.4961 32.5203 72.4837 40.8396 71.8035C40.9353 71.8302 41.0353 71.8388 41.1342 71.8287C55.2384 70.5942 67.9611 60.8196 72.3188 47.3718C76.8187 33.4858 72.0649 17.2618 60.556 8.13712ZM57.3918 8.16231C57.2029 8.19381 57.0269 8.27765 56.8839 8.40416C55.9677 9.1686 55.1807 10.0735 54.5527 11.0846C54.2785 10.868 54.0042 10.6614 53.7198 10.4599C53.5268 10.3255 53.3338 10.1945 53.1408 10.0669C53.8658 8.98104 54.5288 7.85569 55.1266 6.69611C55.9088 7.16973 56.6656 7.64839 57.3918 8.16231ZM54.4816 6.35853C53.7431 7.42379 53.0649 8.52892 52.45 9.66882C51.8841 9.32708 51.301 9.01428 50.7029 8.73166C51.2881 7.62171 51.7089 6.43384 51.9523 5.20472C51.9575 5.17471 51.9575 5.14404 51.9523 5.11403C52.8208 5.47176 53.6588 5.90507 54.4867 6.35853H54.4816ZM48.9913 3.88967C49.8191 4.18191 50.6369 4.50941 51.4546 4.86714C51.3869 4.89083 51.3283 4.93486 51.287 4.9931C50.6499 6.03594 50.1723 7.16681 49.8699 8.34874C49.2249 8.0817 48.5748 7.84489 47.9146 7.64335C47.9627 6.97921 48.0749 6.32119 48.2498 5.67834C48.461 5.06805 48.7086 4.47078 48.9913 3.88967ZM45.7509 2.92732C46.5636 3.12382 47.366 3.3556 48.1685 3.61256C47.4964 4.77082 47.1459 6.08519 47.1527 7.42166C46.3858 7.21508 45.629 7.04881 44.8266 6.91781C44.8881 6.18118 45.0139 5.45123 45.2024 4.73614C45.3649 4.12648 45.6087 3.5269 45.7509 2.92732ZM41.8605 4.03075C41.9671 3.43117 42.15 2.84671 42.2515 2.24713C43.1708 2.37813 44.085 2.55448 44.9942 2.75098C44.2933 3.91991 44.1307 5.45665 44.1257 6.80696C43.2876 6.69107 42.4344 6.61046 41.5862 6.57015C41.6167 5.7183 41.7084 4.86968 41.8605 4.03075ZM38.3611 1.89947C39.4006 1.93306 40.4384 2.012 41.4745 2.13628C40.9209 3.46644 40.8955 5.12914 40.9666 6.53992C39.9508 6.50465 38.9655 6.50969 37.9599 6.53992C38.2189 5.03845 38.5338 3.39086 38.3611 1.89947ZM34.4351 1.98009C34.3729 2.65185 34.3934 3.32863 34.496 3.99548C34.557 4.74622 34.6332 5.50703 34.755 6.25273C34.8109 6.60038 35.3391 6.49457 35.3493 6.17211C35.3848 5.39114 35.3493 4.60514 35.3493 3.82921C35.3731 3.18582 35.3116 2.5421 35.1664 1.91459C36.0451 1.8642 36.9288 1.84909 37.8126 1.8642C37.4012 3.3304 37.4418 5.04349 37.457 6.56511C36.5191 6.6155 35.5795 6.69107 34.6382 6.79184L32.627 7.05385C32.664 7.00076 32.6819 6.93687 32.6778 6.87246C32.6371 5.90507 32.6067 4.93264 32.5406 3.96525C32.5311 3.3733 32.4699 2.78327 32.3578 2.20178C33.0485 2.09597 33.7393 2.01536 34.4351 1.98009ZM31.5706 2.30759C31.5653 2.9233 31.6112 3.5384 31.7077 4.14664C31.7991 5.04853 31.9159 5.95042 32.0277 6.85734C32.0341 6.90615 32.051 6.95301 32.0773 6.99474C32.1036 7.03648 32.1386 7.0721 32.18 7.09919C31.3268 7.21004 30.4887 7.336 29.6406 7.47204C29.7102 7.46476 29.7749 7.43266 29.8225 7.3817C29.8701 7.33075 29.8975 7.26439 29.8996 7.19492C29.8996 5.83453 29.7726 4.00556 28.9905 2.78121C29.8539 2.58975 30.7122 2.43859 31.5706 2.30759ZM28.2083 2.97771C28.3353 3.58737 28.5943 4.17687 28.767 4.77141C29.0053 5.5996 29.1952 6.44075 29.3358 7.29066C29.3413 7.3245 29.3536 7.3569 29.3721 7.38585C29.3906 7.41481 29.4148 7.43972 29.4433 7.45906C29.4719 7.4784 29.5041 7.49176 29.538 7.49832C29.5719 7.50488 29.6068 7.50451 29.6406 7.49723C28.513 7.6887 27.4058 7.90535 26.324 8.18247C26.3931 8.14871 26.4493 8.09362 26.4841 8.02547C26.5189 7.95732 26.5304 7.87981 26.517 7.80458C26.3219 6.95167 26.0777 6.11055 25.7857 5.28534C25.6616 4.77904 25.4916 4.28493 25.2778 3.80906C26.2529 3.4866 27.2281 3.21956 28.2083 2.97771ZM24.4702 4.08114C24.5913 4.62419 24.7613 5.15536 24.9781 5.66826C25.2446 6.48123 25.5532 7.28005 25.9025 8.06154C25.9244 8.11143 25.9607 8.1538 26.0068 8.18337C26.0528 8.21294 26.1066 8.2284 26.1615 8.22781C25.5419 8.38401 24.9324 8.55532 24.328 8.73166C23.6424 7.58793 22.9516 6.27792 21.9968 5.32564C21.7581 5.0838 21.433 5.39114 21.5549 5.66322C22.1633 6.8333 22.9119 7.92617 23.7846 8.91809C23.1548 9.13978 22.5301 9.37659 21.9206 9.65371C21.9005 9.60304 21.8731 9.55552 21.8393 9.51263C21.2806 8.85259 20.722 8.20262 20.2242 7.49723C19.9601 7.11431 19.7163 6.65077 19.4624 6.24265C21.0806 5.41087 22.7537 4.68871 24.4702 4.08114ZM18.599 6.69611C18.8416 7.1869 19.1325 7.6527 19.4675 8.08674C19.9628 8.79201 20.5465 9.43198 21.2045 9.99129C20.8489 10.1676 20.4985 10.344 20.1582 10.5405C19.326 9.39593 18.3555 8.35696 17.2683 7.44685C17.7051 7.18989 18.152 6.93796 18.599 6.69611ZM16.8874 7.67358C17.6573 8.84496 18.5775 9.91199 19.6249 10.8478C19.0042 11.2289 18.4056 11.6444 17.8321 12.0923C17.1202 11.5483 16.4878 10.9091 15.9529 10.1928C15.6532 9.76959 15.445 9.24055 15.1859 8.77701C15.7446 8.37897 16.3135 8.02124 16.8874 7.67358ZM2.50384 28.155C3.04128 24.3898 4.29425 20.76 6.19623 17.4583C8.0348 14.4352 10.6758 12.0016 13.5302 9.90059C13.8364 10.421 14.1955 10.9089 14.6019 11.3567C15.1772 12.0383 15.8639 12.6191 16.6334 13.0748C16.4455 13.2411 16.2576 13.4023 16.0747 13.5787C15.8919 13.755 15.7243 13.9314 15.5669 14.1077C15.6106 14.0363 15.6416 13.9579 15.6583 13.876C15.6981 13.6837 15.6804 13.4841 15.6074 13.3017C15.5345 13.1193 15.4094 12.962 15.2476 12.8491C15.0858 12.7362 14.8943 12.6726 14.6966 12.6662C14.4988 12.6597 14.3035 12.7107 14.1346 12.8128C14.0652 12.8478 14.004 12.8969 13.9548 12.9567C13.9056 13.0166 13.8696 13.086 13.849 13.1604C13.8285 13.2349 13.8238 13.3128 13.8354 13.3892C13.847 13.4656 13.8745 13.5387 13.9162 13.6039C13.8256 13.6979 13.7687 13.8188 13.754 13.948C13.7393 14.0773 13.7677 14.2077 13.8349 14.3193C13.9739 14.5174 14.1845 14.6547 14.4229 14.7025C14.6613 14.7504 14.9092 14.7052 15.1148 14.5763C14.2582 15.4853 13.4593 16.4462 12.7227 17.4533C12.7277 17.3912 12.7277 17.3289 12.7227 17.2669C12.7199 17.1762 12.697 17.0872 12.6558 17.0063C12.6145 16.9253 12.5559 16.8543 12.4839 16.7983C12.4647 16.6978 12.4252 16.6022 12.3679 16.5172C12.3105 16.4322 12.2365 16.3596 12.1502 16.3036C12.0639 16.2476 11.9671 16.2095 11.8657 16.1915C11.7642 16.1734 11.6601 16.1759 11.5596 16.1987C11.3802 16.2232 11.2079 16.2847 11.0539 16.3793C10.9 16.4739 10.7677 16.5994 10.6657 16.7479C10.5545 16.8883 10.4785 17.0529 10.444 17.2281C10.4094 17.4033 10.4172 17.5842 10.4668 17.7558C10.5163 17.9275 10.6063 18.085 10.7291 18.2155C10.852 18.3459 11.0043 18.4456 11.1736 18.5063C11.3116 18.5479 11.4568 18.5609 11.6001 18.5444C11.7434 18.5279 11.8817 18.4824 12.0065 18.4106C8.09655 24.2305 6.14112 31.1276 6.4197 38.1161C4.96882 37.8872 3.49519 37.8347 2.0315 37.9599C1.82528 34.6843 1.98368 31.3962 2.50384 28.155ZM13.6775 58.784C12.9614 58.4464 12.55 58.9755 12.0268 59.2879C10.9247 59.9529 11.138 60.2351 11.4428 59.1266C11.7475 58.0182 12.6617 56.9248 13.1188 55.9121C13.2763 55.5543 12.8445 55.1311 12.5297 55.4586C11.6935 56.3421 10.7215 57.0886 9.6499 57.6705C10.0359 56.0783 10.4422 54.4912 10.8282 52.8991C10.8516 52.8041 10.8434 52.7042 10.8049 52.6143C10.7665 52.5243 10.6997 52.4491 10.6146 52.3998C10.5296 52.3506 10.4307 52.3299 10.3329 52.3408C10.235 52.3518 10.1433 52.3939 10.0714 52.4607L8.27859 54.3552C8.78648 53.1056 9.29437 51.8611 9.80227 50.6116C11.5397 53.8387 13.8644 56.7189 16.6588 59.1065C15.5618 60.1612 14.463 61.2126 13.3626 62.2606C13.9365 61.0463 15.1961 59.5095 13.6673 58.784H13.6775ZM7.48627 56.4965C8.2278 55.7307 8.95916 54.985 9.69561 54.1839C9.44166 55.514 9.18772 56.8442 8.93377 58.1643C8.91965 58.2212 8.92253 58.281 8.94206 58.3363C8.96159 58.3917 8.99692 58.4402 9.04375 58.476C9.09058 58.5118 9.14689 58.5333 9.20582 58.5378C9.26475 58.5424 9.32375 58.5299 9.37564 58.5019C10.1541 58.154 10.8959 57.7304 11.59 57.2372C11.0822 58.1542 10.5336 59.046 9.92924 59.9227C9.02773 58.842 8.2078 57.6969 7.47612 56.4965H7.48627ZM5.87625 53.4986C5.92214 53.5098 5.96992 53.5111 6.01636 53.5024C6.0628 53.4938 6.10682 53.4753 6.14544 53.4482C6.94786 52.9292 7.72259 52.3691 8.46651 51.7704C7.94846 53.0133 7.42533 54.2544 6.89712 55.4939C6.53144 54.8422 6.18776 54.1771 5.8661 53.4986H5.87625ZM9.21819 50.0725C8.38079 50.8316 7.49525 51.5367 6.56699 52.1836C6.98371 50.3759 7.51812 48.597 8.16685 46.8579C8.23796 47.0544 8.30398 47.2509 8.38017 47.4424C8.7103 48.309 9.09122 49.1555 9.50261 49.9616C9.39357 49.9589 9.2878 49.9987 9.20803 50.0725H9.21819ZM2.06706 38.8568C2.86005 38.859 3.65216 38.9095 4.43892 39.0079C3.72787 39.8695 3.05745 40.7613 2.40734 41.6582C2.25498 40.7261 2.14324 39.804 2.06706 38.8568ZM4.06308 40.7664C3.672 41.9101 3.32155 43.0538 3.04729 44.248C2.98634 44.5251 3.3571 44.8123 3.55518 44.5503C4.31194 43.6484 5.07886 42.7415 5.82546 41.8295C5.48646 43.1926 5.00826 44.5178 4.39828 45.7847C4.08018 46.2843 3.80983 46.8123 3.59074 47.3618C3.15303 45.8118 2.80205 44.2391 2.5394 42.6508C3.04729 42.021 3.55518 41.3962 4.06308 40.7664ZM3.78881 48.0168C3.83883 48.0161 3.88766 48.0015 3.92982 47.9748C3.97199 47.9481 4.00582 47.9103 4.02752 47.8656C4.33226 47.2862 4.61668 46.7017 4.8757 46.1172C5.15187 45.6347 5.49367 45.1922 5.89149 44.8022C7.00886 43.729 6.0337 45.0289 5.76452 45.7041L4.24084 49.4527C4.08847 48.9841 3.9361 48.5005 3.78881 48.0168ZM7.03933 43.724C7.04965 43.6796 7.04688 43.6333 7.03135 43.5905C7.01581 43.5477 6.98818 43.5102 6.95175 43.4826C6.91531 43.4549 6.87163 43.4383 6.82591 43.4346C6.78019 43.431 6.73438 43.4405 6.69396 43.462C6.28909 43.763 5.90557 44.0912 5.54612 44.4445C5.96455 43.2672 6.31723 42.0679 6.60254 40.852C6.66349 40.6001 6.33844 40.3482 6.14544 40.585C5.39376 41.4264 4.66747 42.283 3.94118 43.1395C4.258 41.7554 4.71048 40.4054 5.29218 39.1087C5.66294 39.1641 6.02862 39.2246 6.40446 39.2901C6.44817 39.2974 6.49281 39.2974 6.53651 39.2901C6.72524 41.6497 7.1958 43.9786 7.9383 46.2281C7.86667 46.1921 7.78509 46.1805 7.70615 46.1951C7.62721 46.2096 7.5553 46.2496 7.50151 46.3087C6.63809 47.3164 5.78991 48.3846 4.93665 49.4275C5.63754 47.5331 6.31304 45.6184 7.03933 43.724ZM4.75381 50.8887C5.40899 50.1279 6.05402 49.3772 6.70412 48.5911C6.24898 49.9982 5.86755 51.4277 5.56136 52.8739C5.39883 52.5061 5.23631 52.1332 5.08394 51.7604L4.75381 50.8887ZM10.8485 61.0261C11.1075 60.9186 11.3787 60.8425 11.6561 60.7994L12.0725 60.4366L12.7328 61.4695C12.7328 61.6509 12.3468 61.923 12.3367 62.1144C12.3265 62.3059 12.3367 62.3361 12.3367 62.4218C11.8135 61.9734 11.331 61.4998 10.8688 61.0009L10.8485 61.0261ZM17.8371 66.3417C16.2537 65.5318 14.7636 64.5536 13.3931 63.4245L15.4246 61.5451C15.1226 62.4382 14.9516 63.3698 14.9167 64.3112C14.9219 64.3824 14.9422 64.4517 14.9763 64.5145C15.0105 64.5773 15.0577 64.6322 15.1148 64.6755C15.172 64.7189 15.2377 64.7497 15.3078 64.7659C15.3778 64.7822 15.4506 64.7835 15.5211 64.7697C16.1523 64.63 16.7481 64.364 17.2721 63.9881C17.796 63.6121 18.2372 63.134 18.5685 62.583C18.9037 62.0792 18.0606 61.5753 17.7406 62.0792C17.3534 62.8189 16.6984 63.3859 15.9071 63.6663C16.0783 62.2527 16.602 60.9037 17.4308 59.7413C18.5078 60.6195 19.6448 61.4225 20.8337 62.1447C19.7012 63.4313 18.7039 64.8291 17.8574 66.3165L17.8371 66.3417ZM51.1041 67.5459C51.1168 67.4574 51.1168 67.3675 51.1041 67.2789C52.1199 66.8758 53.09 66.4425 54.0702 65.979C54.1539 65.9412 54.2297 65.8882 54.2937 65.8228C54.6492 65.6867 54.9997 65.5457 55.3501 65.3995C53.9918 66.1996 52.5799 66.9066 51.1244 67.5157L51.1041 67.5459ZM61.9629 60.3459C61.9173 60.2906 61.8662 60.24 61.8105 60.1948C62.227 59.8522 62.6282 59.4944 63.0294 59.1317L63.1209 59.1619C62.7196 59.565 62.3336 59.958 61.9629 60.3459ZM39.5038 64.2004C39.3258 64.1849 39.1475 64.2273 38.996 64.3213C36.0023 64.487 32.9998 64.3976 30.0215 64.0543C22.5301 62.1346 15.836 57.4387 11.8897 50.7174C6.16067 40.9729 7.37454 28.1752 13.7486 19.0404C17.5324 13.6039 22.5301 10.3843 29.092 9.34132C35.654 8.29835 43.0032 7.25035 49.2198 10.0366C59.1187 14.4604 63.7253 26.1094 63.7557 36.2771C63.8014 49.9918 54.8524 64.9007 39.4785 64.2004H39.5038ZM67.9459 52.6119C67.8405 52.4336 67.675 52.2979 67.4786 52.2289C67.4913 52.1522 67.4913 52.0739 67.4786 51.9972C67.7108 52.0849 67.953 52.1441 68.1998 52.1735C68.0931 52.3196 68.0068 52.4607 67.9205 52.6068L67.9459 52.6119ZM71.7855 41.4768C71.3034 44.7693 70.3061 47.9669 68.8296 50.9542C68.1998 50.3647 67.2196 50.148 66.4273 49.8407L64.5836 49.1303C64.5609 49.0224 64.5158 48.9203 64.4512 48.8306C64.3866 48.7409 64.304 48.6655 64.2085 48.6091C64.113 48.5528 64.0067 48.5167 63.8964 48.5032C63.7862 48.4897 63.6743 48.499 63.5678 48.5307C64.3609 46.4245 64.9261 44.2406 65.254 42.0159C66.7777 31.5308 63.9589 19.373 55.7767 12.1125C56.4065 11.2478 57.1495 10.4701 57.9861 9.79982C58.1375 9.70187 58.2576 9.56308 58.3323 9.39974C58.407 9.23641 58.4331 9.05533 58.4076 8.87778C68.3572 16.365 73.553 29.0569 71.7601 41.4718L71.7855 41.4768Z" fill="#3C3C3B"/>
<path d="M3.55514 34.7655C3.44854 34.7663 3.34369 34.7926 3.24944 34.842C3.15518 34.8914 3.07428 34.9626 3.01355 35.0495C2.95281 35.1364 2.91402 35.2366 2.90044 35.3415C2.88686 35.4464 2.89889 35.553 2.93551 35.6523C2.91552 35.6986 2.90732 35.7491 2.91162 35.7993C2.91593 35.8495 2.93261 35.8979 2.96021 35.9402C2.98781 35.9825 3.02546 36.0175 3.06987 36.0419C3.11428 36.0664 3.16407 36.0797 3.21486 36.0805C3.24847 36.0863 3.28282 36.0863 3.31643 36.0805C3.39268 36.1095 3.4735 36.1249 3.55514 36.1259C3.73699 36.1259 3.91139 36.0542 4.03998 35.9267C4.16856 35.7991 4.2408 35.6261 4.2408 35.4457C4.2408 35.2653 4.16856 35.0923 4.03998 34.9647C3.91139 34.8372 3.73699 34.7655 3.55514 34.7655Z" fill="#3C3C3B"/>
<path d="M5.36319 32.075C5.20635 32.0419 5.04319 32.0543 4.89332 32.1109C4.74344 32.1675 4.61322 32.2658 4.5183 32.3941C4.42337 32.5223 4.36777 32.675 4.35818 32.8338C4.34859 32.9926 4.38541 33.1507 4.46422 33.2893C4.51939 33.3868 4.60227 33.466 4.70252 33.5171C4.80278 33.5682 4.91597 33.5888 5.02798 33.5765C5.11716 33.6145 5.21398 33.6315 5.3109 33.6263C5.40781 33.6211 5.50219 33.5937 5.58667 33.5463C5.72166 33.4624 5.82901 33.3412 5.89553 33.1976C5.96205 33.054 5.98484 32.8942 5.96111 32.738C5.93737 32.5817 5.86814 32.4357 5.76192 32.3179C5.6557 32.2002 5.51712 32.1157 5.36319 32.075Z" fill="#3C3C3B"/>
<path d="M4.4947 29.324C4.49271 29.2135 4.46881 29.1045 4.42434 29.0031C4.37987 28.9018 4.31572 28.8102 4.23554 28.7334C4.15536 28.6567 4.06072 28.5964 3.95704 28.5559C3.85336 28.5155 3.74267 28.4957 3.63128 28.4977C3.51629 28.5044 3.40424 28.5363 3.30322 28.5912C3.20221 28.6461 3.11476 28.7226 3.0472 28.8151C2.86875 28.8629 2.70681 28.958 2.57882 29.0903C2.45084 29.2226 2.36167 29.387 2.32092 29.5659C2.27828 29.6944 2.28596 29.8342 2.34241 29.9574C2.39887 30.0806 2.49998 30.1783 2.62565 30.2309C2.72592 30.2697 2.83534 30.2789 2.94075 30.2575C3.04617 30.236 3.1431 30.1848 3.21989 30.11C3.32419 30.1925 3.44812 30.2469 3.57977 30.2681C3.71142 30.2893 3.84635 30.2765 3.97157 30.2309C4.11356 30.1899 4.23787 30.1033 4.32514 29.9849C4.41241 29.8664 4.45774 29.7226 4.45407 29.5759C4.48092 29.4946 4.49463 29.4096 4.4947 29.324Z" fill="#3C3C3B"/>
<path d="M5.65268 26.9357C5.56022 26.9981 5.48941 27.0872 5.44989 27.191C5.41036 27.2947 5.40406 27.408 5.43182 27.5154C5.45959 27.6229 5.52008 27.7192 5.60505 27.7913C5.69002 27.8634 5.79533 27.9077 5.90662 27.9182C6.10135 28.2273 6.39447 28.4632 6.73957 28.5883C7.11033 28.7395 7.48109 28.3616 7.49125 28.019C7.48406 27.8078 7.42345 27.6019 7.315 27.42C7.20655 27.2382 7.05373 27.0864 6.87063 26.9785C6.68752 26.8706 6.48 26.8101 6.26716 26.8027C6.05433 26.7952 5.84302 26.8409 5.65268 26.9357Z" fill="#3C3C3B"/>
<path d="M4.40326 22.6731C4.25273 22.7188 4.12561 22.82 4.04812 22.956C3.97063 23.0919 3.94868 23.2522 3.98679 23.4037C4.07819 23.6878 4.27647 23.926 4.54039 24.0688C4.60459 24.3562 4.75722 24.6168 4.97718 24.8145C5.06525 24.8957 5.17263 24.9534 5.2893 24.9822C5.40596 25.0111 5.52809 25.0101 5.64427 24.9794C5.76045 24.9487 5.86688 24.8893 5.95362 24.8067C6.04036 24.7241 6.10457 24.621 6.14026 24.5071C6.51102 23.5045 5.45968 22.2398 4.40326 22.6731Z" fill="#3C3C3B"/>
<path d="M9.53823 21.7259C9.49804 21.564 9.41479 21.4157 9.29715 21.2965C9.17951 21.1774 9.03179 21.0917 8.8694 21.0485C8.70702 21.0052 8.53591 21.006 8.37394 21.0507C8.21196 21.0954 8.06505 21.1825 7.94852 21.3027C7.88208 21.3816 7.83513 21.4747 7.81139 21.5748C7.7424 21.7049 7.7079 21.8503 7.71115 21.9972C7.71439 22.1442 7.75527 22.2879 7.82994 22.4149C7.9046 22.5419 8.01061 22.648 8.13797 22.7231C8.26534 22.7982 8.40988 22.84 8.558 22.8445C8.75099 22.8142 8.78655 22.8142 8.67481 22.8445H8.84241C8.93438 22.8197 9.02304 22.7842 9.10652 22.7387C9.27413 22.6338 9.40535 22.4805 9.48253 22.2995C9.55971 22.1184 9.57915 21.9183 9.53823 21.7259Z" fill="#3C3C3B"/>
<path d="M8.22264 17.4331C7.96042 17.3676 7.68456 17.3805 7.42972 17.4702C7.17488 17.5598 6.95245 17.7222 6.79038 17.9369C6.73196 18.0036 6.69444 18.0857 6.68241 18.1732C6.67039 18.2607 6.68438 18.3498 6.72268 18.4295C6.76097 18.5093 6.82191 18.5762 6.89799 18.622C6.97408 18.6679 7.06201 18.6907 7.15098 18.6877C7.2339 18.925 7.39962 19.1252 7.61824 19.252C7.741 19.3256 7.87942 19.3697 8.02243 19.3808C8.16544 19.3919 8.30908 19.3696 8.44186 19.3157C8.57463 19.2618 8.69286 19.1779 8.78708 19.0706C8.8813 18.9633 8.9489 18.8356 8.98448 18.6977C9.03686 18.4309 8.98807 18.1542 8.84748 17.9208C8.70688 17.6874 8.48438 17.5137 8.22264 17.4331Z" fill="#3C3C3B"/>
<path d="M12.1488 13.1655C12.0804 12.9737 11.9431 12.8137 11.7632 12.7161C11.5833 12.6185 11.3734 12.5901 11.1737 12.6365C10.791 12.7454 10.4665 12.9986 10.2696 13.3419C9.9852 13.7349 10.4423 14.1229 10.8283 14.0322L10.874 14.1077C10.9428 14.1794 11.0255 14.2364 11.1172 14.2754C11.2089 14.3144 11.3076 14.3345 11.4073 14.3345C11.507 14.3345 11.6057 14.3144 11.6974 14.2754C11.7891 14.2364 11.8718 14.1794 11.9406 14.1077C12.0519 13.9805 12.1293 13.8276 12.1657 13.663C12.2021 13.4984 12.1963 13.3273 12.1488 13.1655Z" fill="#3C3C3B"/>
</g>
<defs>
<clipPath id="clip0_219_641">
<rect width="74" height="72" fill="white"/>
</clipPath>
</defs>
</svg>
