<svg width="113" height="102" viewBox="0 0 113 102" fill="none" xmlns="http://www.w3.org/2000/svg">
<g clip-path="url(#clip0_219_632)">
<path d="M15.0735 71.3787C10.7931 70.887 6.47174 70.8585 2.18511 71.2936C2.08352 71.3045 1.98539 71.3367 1.89714 71.388C1.80888 71.4393 1.7325 71.5085 1.67298 71.5913C1.45219 71.6078 1.24188 71.6918 1.07079 71.8318C0.899693 71.9718 0.776148 72.161 0.71702 72.3736C-0.273085 76.5318 0.0512601 81.2003 0.0427247 85.4776C0.0427247 90.078 0.093937 94.7039 0.452423 99.2873C0.375605 99.3468 0.298786 99.3894 0.221968 99.4574C0.159292 99.5093 0.108852 99.5742 0.0742338 99.6477C0.0396157 99.7212 0.0216689 99.8014 0.0216689 99.8826C0.0216689 99.9637 0.0396157 100.044 0.0742338 100.117C0.108852 100.191 0.159292 100.256 0.221968 100.308C1.83516 101.881 4.48966 101.439 6.5979 101.473C9.28655 101.473 12.4702 101.821 14.9967 100.835C15.1722 100.771 15.3281 100.662 15.4491 100.52C15.7419 100.499 16.0151 100.366 16.2121 100.149C16.4091 99.9318 16.5149 99.6477 16.5075 99.3553C16.9172 90.2906 16.6441 81.2088 17.1818 72.144C17.1863 71.8979 17.1135 71.6565 16.9737 71.4536C16.8338 71.2506 16.6339 71.0963 16.4017 71.012C16.1696 70.9277 15.9168 70.9177 15.6787 70.9835C15.4406 71.0492 15.229 71.1874 15.0735 71.3787ZM14.587 74.0403C14.5017 75.0862 14.4249 76.1237 14.348 77.1696C11.9923 75.9366 9.62796 74.8311 7.31488 73.5556C9.72426 73.8894 12.1545 74.0513 14.587 74.0403ZM6.5979 98.3859C5.40295 98.3859 4.0885 98.2754 2.86794 98.3859C2.86794 97.374 2.91915 96.3621 2.94476 95.3502C4.45353 96.4542 6.03627 97.4543 7.6819 98.3434L6.5979 98.3859ZM10.0889 98.2499C7.77579 96.8043 5.31759 95.5798 2.96183 94.1937C2.96183 93.4709 2.96183 92.7396 2.96183 92.0168C6.05164 94.1937 9.41458 96.3706 12.8799 97.442C12.988 97.4673 13.1015 97.4536 13.2003 97.4034C13.2991 97.3532 13.3769 97.2697 13.4199 97.1678C13.4628 97.0659 13.4682 96.9521 13.435 96.8467C13.4018 96.7412 13.3321 96.6509 13.2384 96.5917C11.2326 95.3587 8.97074 94.5508 6.8625 93.4369C5.53098 92.7396 4.24214 91.9743 2.97036 91.1834V88.2327C6.35253 90.5938 9.95721 92.6215 13.7335 94.2872C13.7762 95.6903 13.8444 97.0934 13.9554 98.4965C12.6798 98.2713 11.3829 98.1886 10.0889 98.2499ZM8.74882 84.0405C10.3413 85.2246 12.0284 86.2769 13.7932 87.1868C13.7932 87.765 13.7506 88.3433 13.742 88.8875C12.1374 87.9521 10.251 87.4334 8.62079 86.6085C6.743 85.6816 4.91643 84.6442 3.11546 83.5813C3.11546 82.5183 3.20082 81.4469 3.23496 80.3839L8.74882 84.0405ZM3.23496 79.423C3.23496 78.5727 3.23496 77.6458 3.23496 76.7614C6.64912 78.8703 10.123 81.1918 13.725 82.986C13.7937 83.0229 13.8691 83.046 13.9469 83.054C13.9042 83.9044 13.8615 84.7548 13.8359 85.6051C12.4446 84.6017 10.8315 83.8534 9.3719 83.003L3.23496 79.423ZM8.29644 87.9266C10.0035 88.7769 11.8216 89.9589 13.725 90.3076C13.725 91.0899 13.725 91.8637 13.725 92.646C10.2254 90.7668 6.51255 89.1851 3.01304 87.2973C3.01304 86.6936 3.01304 86.0813 3.01304 85.4776C3.01304 85.265 3.01304 85.0439 3.01304 84.8228C4.71997 85.9464 6.4834 86.9823 8.29644 87.9266ZM3.17521 75.7325C3.13902 74.7619 3.05069 73.794 2.91062 72.8328L4.46406 73.1304C7.3743 75.3219 10.5415 77.1522 13.8957 78.5812C14.0093 78.6188 14.132 78.6188 14.2456 78.5812C14.1659 79.6186 14.0977 80.6561 14.0408 81.6935C10.5925 79.4996 6.82836 77.6798 3.20935 75.7325H3.17521Z" fill="#3C3C3B"/>
<path d="M40.9699 80.6051C41.0894 74.2105 41.7296 67.4161 40.8334 61.047C40.6883 60.0606 39.058 60.1031 38.8788 61.047C38.8788 61.1405 38.8788 61.2341 38.8788 61.3276C33.143 60.3752 27.2365 60.4347 21.5348 60.2646C21.3753 60.2736 21.2201 60.319 21.081 60.3973C20.9419 60.4757 20.8228 60.5848 20.7329 60.7163C20.6429 60.8479 20.5846 60.9983 20.5623 61.1559C20.54 61.3135 20.5545 61.4741 20.6045 61.6252C20.4082 61.8646 20.3051 62.1666 20.3143 62.4756C20.3143 68.8957 20.6301 75.3244 20.852 81.7446C20.8947 82.8841 20.8947 84.0916 20.852 85.3161C20.7388 85.3161 20.6303 85.3609 20.5502 85.4406C20.4702 85.5204 20.4252 85.6285 20.4252 85.7413C20.4252 85.854 20.4702 85.9622 20.5502 86.0419C20.6303 86.1216 20.7388 86.1664 20.852 86.1664C20.852 90.4182 20.8093 94.9421 22.0896 98.7092H21.7653C20.4594 98.8962 20.8691 100.827 22.064 100.895C25.0258 101.065 27.9705 101.082 30.9408 100.98C33.3393 100.895 35.8145 101.107 37.9996 100.044C38.93 99.5935 38.5373 98.3435 37.735 98.0459C35.3024 97.119 32.315 97.7057 29.7544 97.8673C27.7401 97.9949 25.7343 98.2075 23.7797 98.4626C23.964 97.7032 24.1037 96.9337 24.1979 96.1581C28.5765 96.2942 33.5868 96.7278 37.7692 95.7074C37.8596 96.616 38.072 97.5083 38.4008 98.3605C38.5715 98.8027 39.3141 99.0663 39.5616 98.5136C41.8235 93.4455 40.8248 86.0729 40.9699 80.6051ZM38.4093 63.9977C38.341 64.5674 38.2983 65.1457 38.2471 65.6984C33.2113 65.4858 28.2437 65.6984 23.1907 65.2137C23.1395 64.2953 23.0797 63.3684 23.02 62.4501C28.09 63.1899 33.2881 64.0402 38.4093 63.9977ZM37.6923 89.8145C37.6923 91.3536 37.5814 92.9268 37.6923 94.4744C33.4246 93.8111 28.6363 94.5764 24.3345 95.0356C24.4283 93.8451 24.4454 92.6206 24.4198 91.3961C28.5765 91.6002 33.0405 92.0084 37.0949 91.3961C37.2225 91.3556 37.3339 91.2756 37.4129 91.1679C37.4919 91.0601 37.5345 90.9301 37.5345 90.7966C37.5345 90.6632 37.4919 90.5331 37.4129 90.4254C37.3339 90.3176 37.2225 90.2377 37.0949 90.1971C33.032 89.6104 28.5595 90.027 24.3857 90.1971C24.3259 88.8706 24.232 87.5355 24.1381 86.2345C28.3966 86.5872 32.6745 86.6469 36.9412 86.413C37.1404 86.413 37.3315 86.3342 37.4723 86.1939C37.6132 86.0535 37.6923 85.8632 37.6923 85.6647C37.6923 85.4663 37.6132 85.2759 37.4723 85.1356C37.3315 84.9953 37.1404 84.9164 36.9412 84.9164C32.6489 84.6787 28.3453 84.7384 24.0613 85.095C23.976 83.9215 23.8991 82.7735 23.8565 81.6936C23.8565 81.532 23.8565 81.3789 23.8565 81.2174C28.1242 82.3483 33.5527 83.5218 37.8716 82.4674C37.7692 84.9334 37.7094 87.3824 37.6923 89.8145ZM37.9228 76.2088C37.8862 76.1581 37.839 76.1159 37.7845 76.0851C37.73 76.0543 37.6694 76.0356 37.607 76.0302C35.5397 75.8658 33.4633 75.8459 31.3932 75.9707C29.046 75.9707 26.6988 75.7836 24.3515 75.622C23.6516 75.571 23.498 76.7445 24.1808 76.8551C28.3034 77.5268 33.5697 78.3092 37.607 77.1697C37.7364 77.1284 37.8478 77.0444 37.9228 76.9316C37.9228 77.884 37.9228 78.8279 37.8716 79.7718V81.0473C35.917 80.9283 33.9453 81.2174 31.9822 81.2004C29.2387 81.1552 26.5026 80.9051 23.7967 80.4521C23.7114 78.0115 23.6431 75.5625 23.5577 73.122C27.962 73.3006 32.7674 73.9213 37.0607 73.2326C37.1808 73.1989 37.2865 73.1271 37.3618 73.0281C37.4371 72.9291 37.4778 72.8083 37.4778 72.6841C37.4778 72.5598 37.4371 72.439 37.3618 72.34C37.2865 72.241 37.1808 72.1692 37.0607 72.1356C32.793 71.4468 27.9449 72.0676 23.5321 72.2461C23.5321 71.4638 23.4638 70.6815 23.4382 69.9077C28.2929 70.3584 33.1791 70.3584 38.0338 69.9077C37.9484 72.0165 37.9399 74.1254 37.9228 76.2088ZM38.0252 68.6491C33.1479 68.1943 28.2387 68.1943 23.3614 68.6491C23.3187 67.7988 23.2846 66.9484 23.2334 66.0981C27.9876 67.1185 33.3393 67.7988 38.1532 67.11C38.1532 67.6032 38.085 68.1049 38.0679 68.5981L38.0252 68.6491Z" fill="#3C3C3B"/>
<path d="M62.4109 80.6987C62.3254 80.5609 62.2039 80.4489 62.0594 80.3747C61.9149 80.3004 61.7529 80.2667 61.5906 80.2772C61.4284 80.2877 61.2721 80.342 61.1384 80.4342C61.0048 80.5264 60.8988 80.6531 60.8319 80.8007C60.6569 80.6555 60.4435 80.5639 60.2173 80.5371C56.5727 80.1119 52.7147 80.6221 48.9848 80.6306C48.9848 80.2923 48.8499 79.9679 48.6098 79.7287C48.3697 79.4895 48.044 79.3551 47.7045 79.3551C47.3649 79.3551 47.0392 79.4895 46.7991 79.7287C46.559 79.9679 46.4241 80.2923 46.4241 80.6306C45.942 86.965 46.2747 93.3348 47.4143 99.585C47.446 99.7414 47.5213 99.8857 47.6314 100.002C47.7416 100.117 47.8823 100.2 48.0373 100.24C48.0003 100.411 48.0173 100.59 48.0861 100.751C48.1548 100.912 48.272 101.049 48.4214 101.141C50.3248 102.315 52.9452 101.992 55.1132 101.941C57.2812 101.889 59.6028 102.111 61.5915 101.252C61.8305 102.009 63.1194 102.187 63.2986 101.252C64.1948 95.1207 65.3215 86.4215 62.4109 80.6987ZM54.6267 99.1088C52.9196 99.1088 50.9991 98.8622 49.3262 99.3639C49.3774 93.7346 49.1725 88.0627 49.0274 82.4249L50.4785 82.697C50.3163 87.6035 50.1626 93.6666 51.6051 98.3265C51.6207 98.3892 51.6569 98.4448 51.708 98.4846C51.759 98.5244 51.822 98.546 51.8868 98.546C51.9516 98.546 52.0146 98.5244 52.0656 98.4846C52.1167 98.4448 52.1529 98.3892 52.1685 98.3265C53.1927 93.6411 52.5526 87.7566 51.9807 82.9436L53.3293 83.1137C53.6622 88.2158 54.1828 93.1308 54.0633 98.25C54.0633 99.1684 55.3863 99.1003 55.4717 98.25C56.075 93.2615 55.9254 88.2111 55.0278 83.2667C55.9574 83.322 56.8894 83.322 57.8189 83.2667C57.3238 85.7328 57.5714 88.3689 57.5714 90.8774C57.5714 93.386 57.3238 95.8775 57.7762 98.25C57.832 98.4494 57.9649 98.6186 58.1456 98.7206C58.3264 98.8226 58.5404 98.8491 58.7407 98.7942C58.8964 98.7465 59.0371 98.6596 59.1492 98.5419C59.2613 98.4243 59.3411 98.2798 59.3809 98.1224C59.3914 98.0789 59.3907 98.0335 59.3788 97.9903C59.3668 97.9472 59.344 97.9078 59.3126 97.8758C59.2983 97.8 59.2983 97.7221 59.3126 97.6462C59.8418 96.2601 59.415 93.59 59.4235 92.1444C59.4235 89.2192 59.7906 86.0474 59.176 83.1732C59.6369 83.1052 60.0808 83.0201 60.5246 82.9096H60.5844C60.4819 85.3841 60.9599 87.9522 61.105 90.4097C61.2843 93.403 61.3867 96.3622 61.4806 99.398C59.3553 98.6411 56.8373 99.0918 54.6267 99.1088Z" fill="#3C3C3B"/>
<path d="M86.4039 56.8121C86.4018 56.606 86.3524 56.4031 86.2595 56.2189C86.1666 56.0347 86.0327 55.8741 85.868 55.7494C85.7033 55.6247 85.5121 55.5392 85.3091 55.4993C85.1061 55.4595 84.8967 55.4664 84.6968 55.5196C84.5021 55.4279 84.289 55.3814 84.0737 55.3835C78.9525 55.2559 73.8312 55.5706 68.71 55.2985C68.4963 55.2976 68.2901 55.3766 68.1321 55.5199C67.974 55.6632 67.8757 55.8603 67.8565 56.0723C67.5641 56.1375 67.3064 56.3083 67.133 56.5517C66.9597 56.7951 66.8829 57.0939 66.9176 57.3903C67.3273 64.4398 67.8991 71.4722 68.4027 78.5131C68.5564 80.6475 71.1084 98.9216 69.6916 99.4404C69.4697 99.5248 69.2873 99.6885 69.1799 99.8995C69.0725 100.111 69.0478 100.354 69.1107 100.582C69.1736 100.81 69.3194 101.007 69.5199 101.134C69.7204 101.261 69.9611 101.309 70.1952 101.269L70.4427 101.209C73.1694 101.553 75.9139 101.741 78.6623 101.77C81.0778 101.77 83.7835 102.068 86.0368 101.218C86.2154 101.156 86.3754 101.05 86.5022 100.91C86.629 100.771 86.7184 100.601 86.7624 100.418C86.897 100.414 87.0294 100.383 87.1514 100.326C87.2734 100.269 87.3825 100.188 87.4719 100.088C87.5614 99.9874 87.6294 99.8699 87.6718 99.7425C87.7142 99.6152 87.73 99.4805 87.7183 99.3468C87.8037 85.1714 86.7965 70.979 86.4039 56.8121ZM84.1334 82.5863C84.2103 84.2275 84.3127 85.8602 84.4237 87.4929C82.4372 88.8737 80.5255 90.3582 78.6964 91.9402C77.1344 93.2073 75.4615 94.4403 73.9507 95.8093C73.4443 95.9627 73.0184 96.3077 72.7643 96.7703C72.8424 95.2643 72.8025 93.7546 72.6448 92.2549C76.7776 89.4077 80.625 86.1698 84.1334 82.5863ZM70.1866 61.5316C70.0757 60.1455 69.9732 58.7679 69.8537 57.3903C69.8571 57.345 69.8571 57.2996 69.8537 57.2543C71.134 57.5009 72.4144 57.722 73.7288 57.9006C73.2167 58.4873 72.7472 59.1251 72.218 59.6863C71.5743 60.337 70.8962 60.9529 70.1866 61.5316ZM70.3061 62.9261C71.2697 62.2787 72.1828 61.5595 73.0374 60.7748C73.9749 60.0189 74.7772 59.1103 75.4103 58.0876C76.2638 58.1812 77.1174 58.2407 78.0306 58.2917C76.7084 59.5679 75.471 60.9285 74.3263 62.3649C73.0204 63.887 71.7657 65.4517 70.6049 67.0844C70.5024 65.7238 70.4085 64.3377 70.3061 62.9261ZM71.0572 73.5216C71.1107 73.4954 71.1597 73.461 71.2023 73.4195C73.4215 71.0215 75.5725 68.5555 77.7063 66.0895C79.6012 63.9041 81.8886 61.7442 83.2116 59.1591C83.3738 58.8359 83.0068 58.3597 82.6654 58.6149C80.1986 60.4516 78.3465 63.1983 76.4089 65.5622C74.5738 67.7902 72.7472 70.0266 70.9719 72.2971C70.8865 70.9875 70.8012 69.678 70.6988 68.3684C72.2437 66.5146 73.7971 64.6694 75.4615 62.9261C76.921 61.387 78.6793 60.0009 80.0279 58.3512C81.2421 58.3582 82.4558 58.3015 83.664 58.1812C83.664 59.9272 83.664 61.679 83.664 63.4364C79.2653 67.7366 75.1404 72.3062 71.3133 77.1186L71.0572 73.5216ZM71.3901 78.2495C71.4204 78.2357 71.449 78.2186 71.4755 78.1985C75.7622 74.2461 79.8391 70.0737 83.6896 65.6983C83.6896 67.28 83.6896 68.8616 83.7494 70.4518C79.4219 73.7256 75.5127 77.9434 71.6291 81.719C71.5523 80.588 71.4755 79.4315 71.3901 78.275V78.2495ZM71.8766 85.2479C71.8254 84.3976 71.7657 83.6323 71.7059 82.8329C71.8177 82.8237 71.9245 82.7823 72.0132 82.7139C75.8797 79.372 80.2072 76.0726 83.7835 72.3396L83.8859 76.4298C83.7968 76.4351 83.7123 76.4712 83.6469 76.5318C81.5728 78.0284 79.8914 80.1373 78.005 81.8635C76.1187 83.5898 74.0617 85.265 72.0303 86.9146C71.962 86.3449 71.9108 85.7922 71.8766 85.2735V85.2479ZM78.4403 82.9435C80.4461 81.4383 82.2884 79.7283 83.9371 77.8414C83.9371 78.9383 84.0225 80.0268 84.0737 81.1237C83.919 81.124 83.7699 81.1816 83.6555 81.2853C79.8999 84.6017 76.3321 88.0881 72.5595 91.413C72.4229 90.1715 72.2607 88.947 72.1242 87.7735C74.3199 86.2935 76.4288 84.6894 78.4403 82.969V82.9435ZM72.4229 99.1002L72.4997 98.8026C72.5595 98.5305 72.5851 98.2414 72.6277 97.9522C72.6705 98.0219 72.7276 98.0817 72.7952 98.1278C72.8628 98.1738 72.9394 98.2051 73.02 98.2196C73.1007 98.2341 73.1834 98.2313 73.2629 98.2116C73.3424 98.1919 73.4168 98.1557 73.4813 98.1053C75.4871 96.752 77.4083 95.2782 79.2341 93.692C81.0351 92.2549 82.8958 90.8433 84.5858 89.2786C84.637 90.0269 84.7139 90.7753 84.7736 91.5236C83.2714 92.3229 82.0423 93.8535 80.8217 95.01C79.6012 96.1665 78.2611 97.4846 77.0064 98.7601C75.453 98.8196 73.9337 98.9216 72.4229 99.0832V99.1002ZM78.466 98.7006C79.5414 97.7708 80.6055 96.8326 81.6582 95.8859C82.7926 94.9836 83.8648 94.0063 84.8675 92.9607C84.9528 93.9471 85.0467 94.9335 85.1492 95.9199C84.8163 96.2685 84.4919 96.6427 84.1505 96.9913C83.5802 97.5627 82.9759 98.0994 82.341 98.5985C81.0351 98.556 79.7121 98.641 78.466 98.6836V98.7006ZM83.6896 98.7006C84.014 98.454 84.3383 98.2074 84.6456 97.9437L85.3113 97.357C85.3711 97.9097 85.4308 98.471 85.4991 99.0577C84.9084 98.8695 84.3032 98.7302 83.6896 98.641V98.7006Z" fill="#3C3C3B"/>
<path d="M112.292 38.3509C112.172 37.5006 110.952 37.288 110.346 37.7812C110.314 37.478 110.173 37.1966 109.948 36.9899C109.724 36.7832 109.431 36.6655 109.125 36.6587C103.748 36.3951 98.029 37.2285 92.6261 37.4156C92.3695 37.4392 92.1297 37.5533 91.9498 37.7372C91.7699 37.921 91.6617 38.1628 91.6445 38.419C91.5052 38.5174 91.3883 38.644 91.3015 38.7905C91.2147 38.9371 91.16 39.1002 91.141 39.2693C90.5947 44.1674 91.141 49.3545 91.3117 54.2781C91.4824 59.2016 91.6104 64.2953 91.747 69.2953C92.0286 79.304 92.0372 89.3807 93.1382 99.3384C93.1519 99.4173 93.1748 99.4944 93.2065 99.5679C93.057 99.6998 92.9199 99.845 92.7968 100.002C92.725 100.124 92.6824 100.261 92.6722 100.403C92.6621 100.544 92.6847 100.686 92.7383 100.818C92.7919 100.949 92.8751 101.067 92.9814 101.161C93.0877 101.255 93.2144 101.324 93.3516 101.362C93.7955 101.43 94.0515 101.498 94.4271 101.218C94.4951 101.164 94.548 101.094 94.5807 101.014C95.6572 100.83 96.7499 100.759 97.8412 100.801C99.1642 100.733 100.487 100.699 101.81 100.707C104.303 100.707 107.008 101.439 109.424 100.809C109.544 100.779 109.656 100.726 109.754 100.651C109.853 100.576 109.935 100.483 109.996 100.376V100.478C109.996 100.773 110.113 101.057 110.323 101.266C110.533 101.474 110.817 101.592 111.114 101.592C111.41 101.592 111.695 101.474 111.904 101.266C112.114 101.057 112.232 100.773 112.232 100.478C112.94 89.9334 112.676 79.3125 112.65 68.7511C112.667 58.802 113.657 48.181 112.292 38.3509ZM109.663 98.9642C106.914 97.2635 102.638 97.6887 99.5398 97.9608C98.0035 98.0036 96.476 98.206 94.9819 98.5645C95.5623 88.5474 95.0331 78.4622 94.7258 68.445C94.4356 59.0316 95.0928 48.8868 93.4967 39.5329C98.618 40.2472 104.593 40.5619 109.466 39.0993C109.643 39.0437 109.806 38.9509 109.944 38.8271C108.664 48.5127 109.646 58.9465 109.62 68.7086C109.62 78.8533 109.33 89.0576 109.927 99.1938C109.854 99.1015 109.765 99.0236 109.663 98.9642Z" fill="#3C3C3B"/>
<path d="M110.627 1.64967C110.624 1.35272 110.543 1.06181 110.392 0.805868C110.24 0.549927 110.025 0.33788 109.766 0.190823C109.507 0.0437664 109.214 -0.0331735 108.916 -0.032342C108.617 -0.0315105 108.325 0.0470634 108.067 0.195562C106.104 1.12245 104.14 2.08335 102.237 3.12929C100.957 3.83508 99.6764 4.26876 99.4972 5.8079C99.4958 5.90106 99.5197 5.99286 99.5662 6.07366C99.6128 6.15447 99.6803 6.22128 99.7618 6.26709C100.112 6.49405 100.521 6.61513 100.94 6.61574C101.298 7.03241 101.665 7.46609 102.041 7.83175L72.8155 34.8135C65.0227 41.999 57.0507 49.142 51.4771 58.1897C45.0237 51.2117 38.0627 44.7173 30.6507 38.7591C30.3324 38.4526 29.907 38.2812 29.4643 38.2812C29.0216 38.2812 28.5962 38.4526 28.2779 38.7591C20.8862 45.7746 13.3495 53.2917 7.79295 61.8718C7.64309 62.1354 7.59372 62.444 7.65388 62.741C7.71405 63.0379 7.87972 63.3033 8.12048 63.4884C8.36124 63.6735 8.66093 63.7658 8.96452 63.7484C9.26811 63.7311 9.55523 63.6052 9.77316 63.3939C16.4649 56.37 22.5762 48.9379 29.5753 42.1861C37.069 48.3113 44.088 54.9914 50.5723 62.1694C50.7565 62.3453 50.9779 62.4778 51.2203 62.5572C51.4626 62.6366 51.7197 62.6609 51.9728 62.6283C52.2258 62.5956 52.4682 62.5069 52.6823 62.3687C52.8964 62.2304 53.0766 62.0461 53.2098 61.8292C58.9626 51.625 67.9077 43.8953 76.4345 36.0295L104.286 10.3318C104.746 10.9681 105.352 11.4868 106.052 11.8454C106.048 11.902 106.048 11.9589 106.052 12.0155C106.067 12.2797 106.155 12.5346 106.308 12.7511C106.461 12.9675 106.672 13.1368 106.916 13.2397C107.161 13.3425 107.43 13.3748 107.692 13.3327C107.954 13.2907 108.2 13.176 108.4 13.0019C109.74 11.6413 110.03 9.60048 110.32 7.73821C110.648 5.72625 110.751 3.68426 110.627 1.64967Z" fill="#3C3C3B"/>
</g>
<defs>
<clipPath id="clip0_219_632">
<rect width="113" height="102" fill="white"/>
</clipPath>
</defs>
</svg>
