<svg width="46" height="32" viewBox="0 0 46 32" fill="none" xmlns="http://www.w3.org/2000/svg">
<path d="M8.89997 20.86C7.91 23.3499 6.35003 25.81 4.26502 28.18C3.60502 28.93 3.51501 30.01 4.055 30.85C4.47504 31.51 5.16499 31.8699 5.91499 31.8699C6.125 31.8699 6.33503 31.855 6.54504 31.7799C10.955 30.49 21.26 25.915 21.545 11.2449C21.65 5.59 17.51 0.730016 12.125 0.175016C9.14001 -0.124999 6.17004 0.849942 3.965 2.82996C1.76004 4.82499 0.5 7.67502 0.5 10.645C0.5 15.595 4.01005 19.93 8.89997 20.86Z" fill="#FA8977"/>
<path d="M36.065 0.175016C33.095 -0.124999 30.125 0.849942 27.92 2.82996C25.715 4.82499 24.455 7.67502 24.455 10.645C24.455 15.595 27.965 19.93 32.855 20.86C31.865 23.3499 30.305 25.81 28.22 28.18C27.56 28.93 27.47 30.0099 28.01 30.8499C28.43 31.5099 29.12 31.8699 29.87 31.8699C30.08 31.8699 30.29 31.855 30.5 31.7799C34.91 30.4899 45.215 25.915 45.5 11.2449V11.035C45.5 5.46997 41.405 0.730017 36.065 0.175016Z" fill="#FA8977"/>
</svg>
