<svg xmlns="http://www.w3.org/2000/svg" width="30" height="30" viewBox="0 0 30 30" fill="none"><g clip-path="url(#clip0_262_36068)"><path d="M29.375 6.875C29.375 11.05 24.375 13.7938 19.5188 12.9813L16.25 16.25V11.8C10.1688 8.125 13.5688 0.625 21.25 0.625C25.7375 0.625 29.375 3.425 29.375 6.875Z" fill="#F16F39"></path><path d="M29.375 6.87505C29.375 11.1938 24.0813 13.75 19.5188 12.9813L18.125 14.375C18.125 9.62505 15 8.9563 15 5.62505C15.0189 4.85301 15.2007 4.09367 15.5335 3.3968C15.8663 2.69992 16.3426 2.08124 16.9313 1.5813C22.275 -1.01245 29.375 1.9313 29.375 6.87505Z" fill="#F8834B"></path><path d="M21.381 29.375C22.2967 29.3361 23.1644 28.9546 23.8122 28.3062L25.456 26.6625C25.5722 26.5464 25.6644 26.4085 25.7273 26.2568C25.7902 26.105 25.8226 25.9424 25.8226 25.7781C25.8226 25.6138 25.7902 25.4512 25.7273 25.2994C25.6644 25.1477 25.5722 25.0098 25.456 24.8937L21.9185 21.3562C21.8024 21.24 21.6645 21.1478 21.5128 21.0849C21.361 21.022 21.1984 20.9896 21.0341 20.9896C20.8698 20.9896 20.7072 21.022 20.5554 21.0849C20.4037 21.1478 20.2658 21.24 20.1497 21.3562C18.0372 23.4687 17.7247 24.0687 16.7997 23.8187C14.2223 23.2023 11.8676 21.8799 9.99974 20C8.11614 18.1347 6.80244 15.7718 6.21224 13.1875C6.15468 12.9747 6.15442 12.7504 6.2115 12.5375C6.26858 12.3245 6.38096 12.1305 6.53724 11.975L8.67474 9.83748C8.79096 9.72139 8.88316 9.58353 8.94606 9.43178C9.00897 9.28004 9.04135 9.11738 9.04135 8.95311C9.04135 8.78884 9.00897 8.62618 8.94606 8.47443C8.88316 8.32268 8.79096 8.18482 8.67474 8.06873L5.12474 4.54373C5.00865 4.42751 4.87079 4.33531 4.71904 4.27241C4.56729 4.2095 4.40463 4.17712 4.24036 4.17712C4.07609 4.17712 3.91344 4.2095 3.76169 4.27241C3.60994 4.33531 3.47208 4.42751 3.35599 4.54373L1.71224 6.18748C1.05226 6.82907 0.6631 7.69909 0.624739 8.61873C0.503276 11.3768 0.957031 14.13 1.95715 16.7033C2.95728 19.2765 4.48189 21.6135 6.43404 23.5657C8.3862 25.5178 10.7232 27.0424 13.2964 28.0426C15.8697 29.0427 18.6229 29.4964 21.381 29.375Z" fill="#374F68"></path><path d="M25.4563 26.6438L24.1438 27.9563C23.8554 28.0435 23.5572 28.0939 23.2563 28.1063C20.5742 28.2226 17.8964 27.795 15.384 26.8491C12.8716 25.9031 10.5766 24.4585 8.63734 22.6021C6.69805 20.7457 5.15455 18.5161 4.0998 16.0474C3.04504 13.5787 2.50085 10.9221 2.5 8.2375C2.5 7.0875 2.5 5.99375 3.5875 4.9375C4.775 3.75 4.0375 3.45625 8.6625 8.0625C8.77872 8.17859 8.87092 8.31645 8.93383 8.4682C8.99673 8.61995 9.02911 8.78261 9.02911 8.94688C9.02911 9.11115 8.99673 9.2738 8.93383 9.42555C8.87092 9.5773 8.77872 9.71516 8.6625 9.83125C6.55 11.9438 5.94375 12.2625 6.2 13.1813C6.53316 14.5518 7.05702 15.8688 7.75625 17.0938C9.61492 20.3113 12.6666 22.6669 16.25 23.65C16.9188 23.8313 17.4438 24.0375 18.0063 23.475C21.5375 19.9438 20.5063 19.9125 25.45 24.875C25.5666 24.9907 25.6593 25.1282 25.7228 25.2797C25.7862 25.4313 25.8192 25.5938 25.8197 25.7581C25.8203 25.9224 25.7885 26.0851 25.7261 26.2371C25.6638 26.3891 25.5721 26.5273 25.4563 26.6438Z" fill="#425B72"></path><path d="M25 7.5H22.5C22.3342 7.5 22.1753 7.43415 22.0581 7.31694C21.9408 7.19973 21.875 7.04076 21.875 6.875V4.375C21.875 4.20924 21.9408 4.05027 22.0581 3.93306C22.1753 3.81585 22.3342 3.75 22.5 3.75C22.6658 3.75 22.8247 3.81585 22.9419 3.93306C23.0592 4.05027 23.125 4.20924 23.125 4.375V6.25H25C25.1658 6.25 25.3247 6.31585 25.4419 6.43306C25.5592 6.55027 25.625 6.70924 25.625 6.875C25.625 7.04076 25.5592 7.19973 25.4419 7.31694C25.3247 7.43415 25.1658 7.5 25 7.5Z" fill="#EDEBF2"></path><path d="M24.375 9.375V4.375C24.375 4.20924 24.4408 4.05027 24.5581 3.93306C24.6753 3.81585 24.8342 3.75 25 3.75C25.1658 3.75 25.3247 3.81585 25.4419 3.93306C25.5592 4.05027 25.625 4.20924 25.625 4.375V9.375C25.625 9.54076 25.5592 9.69973 25.4419 9.81694C25.3247 9.93415 25.1658 10 25 10C24.8342 10 24.6753 9.93415 24.5581 9.81694C24.4408 9.69973 24.375 9.54076 24.375 9.375Z" fill="#EDEBF2"></path><path d="M20 10H17.5C17.3342 10 17.1753 9.93415 17.0581 9.81694C16.9408 9.69973 16.875 9.54076 16.875 9.375V6.875C16.875 6.70924 16.9408 6.55027 17.0581 6.43306C17.1753 6.31585 17.3342 6.25 17.5 6.25H19.375V5H17.5C17.3342 5 17.1753 4.93415 17.0581 4.81694C16.9408 4.69973 16.875 4.54076 16.875 4.375C16.875 4.20924 16.9408 4.05027 17.0581 3.93306C17.1753 3.81585 17.3342 3.75 17.5 3.75H20C20.1658 3.75 20.3247 3.81585 20.4419 3.93306C20.5592 4.05027 20.625 4.20924 20.625 4.375V6.875C20.625 7.04076 20.5592 7.19973 20.4419 7.31694C20.3247 7.43415 20.1658 7.5 20 7.5H18.125V8.75H20C20.1658 8.75 20.3247 8.81585 20.4419 8.93306C20.5592 9.05027 20.625 9.20924 20.625 9.375C20.625 9.54076 20.5592 9.69973 20.4419 9.81694C20.3247 9.93415 20.1658 10 20 10Z" fill="#EDEBF2"></path><path d="M22.3624 20.9C22.1882 20.7252 21.9812 20.5865 21.7533 20.4919C21.5254 20.3973 21.281 20.3486 21.0343 20.3486C20.7875 20.3486 20.5431 20.3973 20.3152 20.4919C20.0873 20.5865 19.8803 20.7252 19.7061 20.9C17.4436 23.1625 17.4311 23.325 16.9624 23.2C11.4811 21.7 8.16239 18.0313 6.96239 13.5813C6.64364 12.4125 6.49989 12.9063 9.11239 10.2938C9.28719 10.1196 9.42588 9.91261 9.52052 9.6847C9.61515 9.45679 9.66387 9.21244 9.66387 8.96566C9.66387 8.71889 9.61515 8.47454 9.52052 8.24663C9.42588 8.01872 9.28719 7.81173 9.11239 7.63754L5.56864 4.10629C5.39444 3.93149 5.18746 3.79279 4.95955 3.69816C4.73164 3.60352 4.48729 3.55481 4.24051 3.55481C3.99373 3.55481 3.74939 3.60352 3.52148 3.69816C3.29357 3.79279 3.08658 3.93149 2.91239 4.10629C1.37489 5.62504 0.106135 6.56254 -0.000114672 8.59379C-0.119074 11.3619 0.323631 14.1254 1.30132 16.7178C2.27901 19.3102 3.77144 21.6778 5.68868 23.678C7.60592 25.6782 9.90827 27.2695 12.457 28.356C15.0057 29.4425 17.748 30.0017 20.5186 30C23.3999 30 23.7311 29.25 25.8936 27.0875C26.0684 26.9133 26.2071 26.7064 26.3018 26.4784C26.3964 26.2505 26.4451 26.0062 26.4451 25.7594C26.4451 25.5126 26.3964 25.2683 26.3018 25.0404C26.2071 24.8125 26.0684 24.6055 25.8936 24.4313L22.3624 20.9ZM24.9999 26.2C23.4499 27.75 22.8186 28.6688 21.3374 28.7C18.6721 28.8148 16.012 28.3749 13.5254 27.4084C11.0388 26.4419 8.78 24.9697 6.89183 23.0851C5.00366 21.2004 3.52727 18.9443 2.55611 16.4596C1.58494 13.9749 1.14015 11.3156 1.24989 8.65004C1.31239 7.13129 2.28114 6.48754 3.78114 4.98754C3.84027 4.92785 3.91084 4.8807 3.98862 4.84891C4.06639 4.81711 4.14978 4.80133 4.23379 4.8025C4.31781 4.80366 4.40072 4.82176 4.47759 4.8557C4.55445 4.88964 4.62368 4.93873 4.68114 5.00004L8.21864 8.53754C8.33504 8.65464 8.40038 8.81305 8.40038 8.97816C8.40038 9.14328 8.33504 9.30169 8.21864 9.41879C5.58739 12.05 5.21864 11.9813 5.71864 13.9188C6.39864 16.3958 7.71347 18.6525 9.5331 20.4656C11.3527 22.2786 13.6141 23.5853 16.0936 24.2563C17.9999 24.775 17.8811 24.4938 20.5936 21.7563C20.7107 21.6399 20.8691 21.5745 21.0343 21.5745C21.1994 21.5745 21.3578 21.6399 21.4749 21.7563L24.9999 25.3188C25.1163 25.4359 25.1816 25.5943 25.1816 25.7594C25.1816 25.9245 25.1163 26.0829 24.9999 26.2Z" fill="black"></path><path d="M24.375 4.375V6.25H23.125V4.375C23.125 4.20924 23.0592 4.05027 22.9419 3.93306C22.8247 3.81585 22.6658 3.75 22.5 3.75C22.3342 3.75 22.1753 3.81585 22.0581 3.93306C21.9408 4.05027 21.875 4.20924 21.875 4.375V6.875C21.875 7.04076 21.9408 7.19973 22.0581 7.31694C22.1753 7.43415 22.3342 7.5 22.5 7.5H24.375V9.375C24.375 9.54076 24.4408 9.69973 24.5581 9.81694C24.6753 9.93415 24.8342 10 25 10C25.1658 10 25.3247 9.93415 25.4419 9.81694C25.5592 9.69973 25.625 9.54076 25.625 9.375V4.375C25.625 4.20924 25.5592 4.05027 25.4419 3.93306C25.3247 3.81585 25.1658 3.75 25 3.75C24.8342 3.75 24.6753 3.81585 24.5581 3.93306C24.4408 4.05027 24.375 4.20924 24.375 4.375Z" fill="black"></path><path d="M20 3.75H17.5C17.3342 3.75 17.1753 3.81585 17.0581 3.93306C16.9408 4.05027 16.875 4.20924 16.875 4.375C16.875 4.54076 16.9408 4.69973 17.0581 4.81694C17.1753 4.93415 17.3342 5 17.5 5H19.375V6.25H17.5C17.3342 6.25 17.1753 6.31585 17.0581 6.43306C16.9408 6.55027 16.875 6.70924 16.875 6.875V9.375C16.875 9.54076 16.9408 9.69973 17.0581 9.81694C17.1753 9.93415 17.3342 10 17.5 10H20C20.1658 10 20.3247 9.93415 20.4419 9.81694C20.5592 9.69973 20.625 9.54076 20.625 9.375C20.625 9.20924 20.5592 9.05027 20.4419 8.93306C20.3247 8.81585 20.1658 8.75 20 8.75H18.125V7.5H20C20.1658 7.5 20.3247 7.43415 20.4419 7.31694C20.5592 7.19973 20.625 7.04076 20.625 6.875V4.375C20.625 4.20924 20.5592 4.05027 20.4419 3.93306C20.3247 3.81585 20.1658 3.75 20 3.75Z" fill="black"></path><path d="M21.2497 0C13.0372 0 9.43095 8.06875 15.6247 12.1438C15.6247 16.5187 15.4935 16.6125 16.0122 16.825C16.531 17.0375 16.456 16.925 19.7622 13.6438C25.3122 14.4125 29.9997 10.9688 29.9997 6.875C29.9997 3.08125 26.0747 0 21.2497 0ZM21.2497 12.5C18.6122 12.5 20.081 11.5312 16.8747 14.7437C16.8747 11.7188 16.981 11.5125 16.5747 11.2625C11.0185 7.91875 14.231 1.25 21.2497 1.25C25.3872 1.25 28.7497 3.75 28.7497 6.875C28.7497 10 25.3872 12.5 21.2497 12.5Z" fill="#FA8977"></path></g><defs><clipPath id="clip0_262_36068"><rect width="30" height="30" fill="white"></rect></clipPath></defs></svg>