<svg width="20" height="20" viewBox="0 0 20 20" fill="none" xmlns="http://www.w3.org/2000/svg">
<g clip-path="url(#clip0_73_124)">
<path d="M3.33331 5.83341C3.33331 5.39139 3.50891 4.96746 3.82147 4.6549C4.13403 4.34234 4.55795 4.16675 4.99998 4.16675H15C15.442 4.16675 15.8659 4.34234 16.1785 4.6549C16.4911 4.96746 16.6666 5.39139 16.6666 5.83341V15.8334C16.6666 16.2754 16.4911 16.6994 16.1785 17.0119C15.8659 17.3245 15.442 17.5001 15 17.5001H4.99998C4.55795 17.5001 4.13403 17.3245 3.82147 17.0119C3.50891 16.6994 3.33331 16.2754 3.33331 15.8334V5.83341Z" stroke="#1B321D" stroke-width="1.5" stroke-linecap="round" stroke-linejoin="round"/>
<path d="M13.3333 2.5V5.83333" stroke="#1B321D" stroke-width="1.5" stroke-linecap="round" stroke-linejoin="round"/>
<path d="M6.66669 2.5V5.83333" stroke="#1B321D" stroke-width="1.5" stroke-linecap="round" stroke-linejoin="round"/>
<path d="M3.33331 9.16675H16.6666" stroke="#1B321D" stroke-width="1.5" stroke-linecap="round" stroke-linejoin="round"/>
<path d="M9.16666 13.3333C9.16666 13.5543 9.25445 13.7663 9.41073 13.9226C9.56701 14.0789 9.77898 14.1667 9.99999 14.1667C10.221 14.1667 10.433 14.0789 10.5892 13.9226C10.7455 13.7663 10.8333 13.5543 10.8333 13.3333C10.8333 13.1123 10.7455 12.9004 10.5892 12.7441C10.433 12.5878 10.221 12.5 9.99999 12.5C9.77898 12.5 9.56701 12.5878 9.41073 12.7441C9.25445 12.9004 9.16666 13.1123 9.16666 13.3333Z" stroke="#1B321D" stroke-width="1.5" stroke-linecap="round" stroke-linejoin="round"/>
</g>
<defs>
<clipPath id="clip0_73_124">
<rect width="20" height="20" fill="white"/>
</clipPath>
</defs>
</svg>
