<svg width="10" height="5" viewBox="0 0 10 5" fill="none" xmlns="http://www.w3.org/2000/svg">
<path d="M8.50014 0.25C8.99714 0.25 9.25672 0.825167 8.95689 1.19675L8.91255 1.24575L5.41255 4.74575C5.31211 4.84619 5.17846 4.90652 5.0367 4.91543C4.89493 4.92435 4.75479 4.88123 4.64255 4.79417L4.58772 4.74575L1.08772 1.24575L1.0393 1.19092L1.0078 1.146L0.976302 1.09L0.966386 1.069L0.950636 1.02992L0.931969 0.966917L0.926135 0.936L0.920302 0.901L0.917969 0.86775V0.798917L0.920885 0.765084L0.926135 0.730083L0.931969 0.69975L0.950636 0.63675L0.966386 0.597667L1.00722 0.520667L1.04514 0.468166L1.08772 0.420917L1.14255 0.3725L1.18747 0.341L1.24347 0.3095L1.26447 0.299583L1.30355 0.283833L1.36655 0.265167L1.39747 0.259333L1.43247 0.2535L1.46572 0.251167L8.50014 0.25Z" fill="#0D0D25"/>
</svg>
